<?xml version="1.0" encoding="utf-8"?>
<!-- Generator: Adobe Illustrator 27.8.0, SVG Export Plug-In . SVG Version: 6.00 Build 0)  -->
<svg version="1.1" xmlns="http://www.w3.org/2000/svg" xmlns:xlink="http://www.w3.org/1999/xlink" x="0px" y="0px"
	 viewBox="0 0 283.5 283.5" style="enable-background:new 0 0 283.5 283.5;" xml:space="preserve">
<style type="text/css">
	.st0{display:none;}
	.st1{display:inline;fill:#4F4D4C;stroke:#4A4A49;stroke-width:2;stroke-miterlimit:10;}
	.st2{display:none;fill:#FEFDFF;stroke:#4A4A49;stroke-width:0.25;stroke-miterlimit:10;}
	.st3{fill:#4A4A49;}
	.st4{fill:none;stroke:#4A4A49;stroke-width:2;stroke-miterlimit:10;}
</style>
<g id="Ebene_3" class="st0">
	<rect x="-60.2" y="-17.5" class="st1" width="376" height="337.8"/>
</g>
<g id="Ebene_1">
	<circle class="st2" cx="141.7" cy="141.7" r="112"/>
	<g id="Ebene_2_00000138571928024317571190000001779124721111326881_">
		<g>
			<path class="st3" d="M37.2,128c2-2.3,4.1-4.6,6.2-6.8c9.5-45.6,50-79.9,98.3-79.9c32.8,0,61.9,15.8,80.2,40.1
				c3.2,0.8,5.3,1.5,5.5,1.5l-3.1,1.9c10.8,15.6,17.2,34.3,17.7,54.6c0.6-0.1,1.2-0.2,1.8-0.2c3.8,0,7.5,2,9,6.3
				c0.7-0.6,1.4-1.2,2.4-1.7c0-0.7,0-1.3,0-2C255.4,79,204.4,28,141.7,28C80,28,29.6,77.5,28.1,138.9
				C29.3,137.3,31.7,134.3,37.2,128z"/>
			<path class="st3" d="M247.7,180.1c-1.6,0-3.1-0.5-4.4-1.4l-3.2-2.1c-1.7,1.5-3.5,2.5-5.4,3.1c-15,36.6-51,62.4-93,62.4
				c-30.7,0-58.1-13.8-76.6-35.5c-0.7,0.1-1.3,0.1-2,0.1c-3.4,0-6.5-1.4-8.7-4c-1.4-1.6-2.7-6.2-2.6-8.2l1.4-5.3c-1-1.9-2-3.9-3-6
				c-1.2,0.7-2.6,1.1-4,1.1c-0.3,0-0.5,0-0.8-0.1l-1.1-0.2c-2.4-0.5-4.4-2.1-5.7-4.4c-0.9-1.6-1.4-3.6-1.4-5.8
				c0-4.3,0.7-9.8,2.1-16.7c-1.9,0.5-3.7,1.1-5.3,1.7c-1.2,1.8-2.4,3.7-3.7,5.8c10.7,51.7,56.6,90.7,111.3,90.7
				c49.2,0,91.3-31.5,107-75.4C248.4,180.1,248,180.1,247.7,180.1z"/>
		</g>
		<g>
			<path class="st3" d="M58,148c0.5-0.1,0.9-0.4,1.3-1s0.6-1.1,0.6-1.7c0-1.3-0.9-2-2.6-2c-0.6,0-1.3,0-2.1,0c-0.2,0-0.5,0-1.1,0
				c0.4-2,1.1-4.8,2.3-8.5c1.3-4.2,2.7-8.1,4.1-11.7c0.8-2.1,1.2-3.5,1.2-4.4c0-0.7-0.2-1.3-0.7-1.9c-0.6-0.6-1.2-0.9-2-0.9
				c-1.2,0-3,1.1-5.4,3.4c-4,3.8-8,8-11.8,12.4c-5.3,6.1-8.5,10-9.6,11.6c-2.6,3.8-4.3,6.1-4.9,6.8c-1.3,0.6-3.1,1.2-5.3,2
				c-3,0.9-5.1,1.7-6.2,2.4c-0.7,0.4-1.1,1.1-1.1,2.1c0,0.4,0.1,0.8,0.4,1.2c0.3,0.5,0.8,0.8,1.4,0.8c0.5,0,1.1-0.2,1.8-0.5
				c1.5-0.6,3.1-1.2,4.9-1.7c-0.6,0.9-1.3,2.2-2.3,3.7c-2.5,3.9-4.3,6.9-5.5,9c-2.2,3.9-3.3,6.3-3.3,7.1c0,0.5,0.2,0.9,0.6,1.3
				c0.4,0.4,0.9,0.7,1.4,0.7c1,0,2-0.8,3-2.4c0.9-1.4,1.5-2.5,1.9-3.2l2.4-4.1c3.3-5.6,6.3-10.4,9-14.4c4.5-1.8,10.2-3.4,16.9-4.7
				c-0.4,1.9-0.9,4.6-1.7,8.1c-1.5,7-2.2,12.5-2.2,16.6c0,1.2,0.2,2.2,0.6,2.9c0.6,1,1.3,1.6,2.4,1.6c1.3,0,1.9-1.1,1.9-3.2
				c0-1.3,0.4-4.8,1.2-10.6c1.5-8.7,2.7-14.1,3.4-16.2c0.8-0.2,2.1-0.3,3.8-0.3C57.3,148.1,57.8,148.1,58,148z M52.5,131.7
				c-1.1,2.9-1.8,4.9-2,5.8c-1.1,3.7-1.8,6.1-2,6.9c-3.6,0.8-5.9,1.3-6.9,1.6c-3.6,1.1-6,1.7-7.1,2c2.9-4.8,7.8-10.9,14.8-18.5
				c2-2.1,4-3.8,5.9-5.1C54.4,126.3,53.6,128.7,52.5,131.7z"/>
			<path class="st3" d="M97.7,158c-0.6,0-1.3,0.6-2,1.7c-1.6,2.5-3.2,4.6-4.9,6.3c-1.5,1.5-3.3,2.9-5.6,4.5c0.8-2,2.1-4.8,3.8-8.3
				c2.2-4.3,3.8-7.3,4.9-8.9c1.8-2.6,2.7-4.1,2.7-4.6c0-0.4-0.2-0.7-0.5-1.1c-0.4-0.4-0.8-0.5-1.2-0.5c-1.4,0-3,1.6-4.7,4.7
				c-1.1,2-3.6,7-7.3,15l-2.7,5.8l-0.9,1.9c-3,1.2-5.7,2.5-8.1,4c0.3-0.3,0.5-0.6,0.5-1c0-0.4-0.2-0.9-0.6-1.6
				c-0.9-1.5-1.3-3.1-1.3-4.7c0-5.1,2.8-10.9,8.5-17.5c1-1.2,1.6-2.3,1.6-3.2c0-1.3-0.6-1.9-1.7-1.9c-2.1,0-6.3,3-12.5,9.1
				c-0.4,0.4-0.7,0.7-1.1,1.1c0.8-1.5,1.8-3.1,3-4.9c0.9-1.2,1.3-2.1,1.3-2.8c0-0.5-0.2-1-0.6-1.4c-0.4-0.4-0.7-0.5-1.1-0.5
				c-0.8,0-1.8,0.8-2.9,2.4c-1.1,1.7-2.7,4.3-4.6,8c-3.7,6.8-5.5,11-5.5,12.6c0,0.6,0.2,1.2,0.6,1.6c0.3,0.4,0.7,0.5,1.2,0.5
				c1,0,2-0.8,2.8-2.4c3.5-6.6,7.2-11.1,11.3-13.7c-3,4.9-4.6,9.3-4.6,13.3c0,2.1,0.4,3.9,1.2,5.3c0.8,1.5,1.9,2.3,3.1,2.3
				c0.2,0,0.3,0,0.5-0.1c-3,1.9-5.6,4.1-7.6,6.6c-3.2,3.8-4.8,7.2-4.8,10.3c0,1.2,0.4,2.2,1.1,3.1c1.1,1.3,2.5,2,4.2,2
				c1.4,0,2.8-0.4,4.1-1.2c2-1.2,3.6-2.6,5-4.5c2.5-3.4,5-7.8,7.4-13.2c1.4-3.1,2.4-5.1,3-6.1c6.6-3.7,11.4-7.8,14.4-12.3
				c1.2-1.8,1.9-3.1,1.9-4.1c0-0.4-0.1-0.7-0.4-1C98.3,158.2,98,158,97.7,158z M67.8,194.3c-1.4,1.4-2.7,2.1-4,2.1
				c-0.6,0-1-0.2-1.3-0.5c-0.3-0.3-0.5-0.8-0.5-1.4c0-2.6,1.9-5.7,5.6-9.3c3.2-3.1,6.2-5.2,9-6.2C73.1,187,70.2,192.1,67.8,194.3z"
				/>
			<path class="st3" d="M103,137.1c1.3-1.5,2-2.9,2-4.1c0-1.4-0.7-2.1-2-2.1c-0.9,0-2,0.6-3.1,1.8c-1.6,1.6-2.4,3.1-2.4,4.5
				c0,0.6,0.2,1.1,0.5,1.5c0.4,0.4,0.9,0.6,1.4,0.6C100.6,139.3,101.8,138.6,103,137.1z"/>
			<path class="st3" d="M185.4,131.3c-2.8,2.3-5.9,4.1-9.5,5.4c-2,0.7-2.9,1.6-2.9,2.7c0,0.5,0.2,0.9,0.5,1.3
				c0.5,0.6,1.1,0.9,1.8,0.9c1,0,2.6-0.5,4.6-1.5c4-2.1,7.6-4.7,10.6-7.9c3.2-3.4,4.8-6.7,4.8-9.6c0-1.9-0.7-3.4-2.2-4.5
				c-1.2-0.9-2.7-1.4-4.5-1.4c-2.7,0-5.5,0.6-8.4,1.9c-3.5,1.6-6.7,3.6-9.6,6.2c-5.5,4.8-8.2,10-8.2,15.6c0,2.4,0.7,4.7,2.1,7.2
				c1.2,2.2,2.7,4.6,4.5,7.3c1.2,1.7,2,3.1,2.6,4.3c0.5,1.1,0.8,2.3,0.8,3.7c0,2.2-0.9,4.1-2.8,5.5c-2.9,2.3-6.4,3.4-10.3,3.4
				c-2,0-3.6-0.4-4.9-1.3c-1.5-1.1-2.2-2.6-2.2-4.5c0-2.4,1.3-4,3.8-4.9c1.5-0.5,2.2-1.2,2.2-2.2c0-1.3-0.8-2-2.4-2
				c-0.6,0-1.5,0.2-2.4,0.6c-1.4,0.5-2.7,1.3-3.7,2.4c-1.7,1.8-2.6,3.9-2.6,6.5c0,2.3,0.9,4.4,2.7,6.1c2.4,2.4,5.7,3.5,10,3.5
				c4.3,0,8.2-1.1,11.6-3.4c4-2.7,6-5.8,6-9.3c0-1.8-0.6-3.8-1.6-5.8c-0.9-1.8-2.1-3.7-3.5-5.7c-1.4-2.1-2.6-4.1-3.5-5.8
				c-1.1-2.1-1.6-4.2-1.6-6.1c0-2.7,1-5.5,3.1-8.4c2.4-3.3,5.6-6.1,9.8-8.2c3.1-1.6,5.7-2.4,7.7-2.4c0.8,0,1.4,0.2,2,0.6
				c0.7,0.5,1.1,1.2,1.1,2.1C190.8,125.7,189,128.3,185.4,131.3z"/>
			<path class="st3" d="M195.6,148.8c0-0.3-0.1-0.6-0.4-1c-0.3-0.4-0.7-0.6-1.2-0.6c-0.6,0-1.1,0.3-1.6,0.9
				c-0.5,0.5-1.3,1.6-2.4,3.2c-3.3,4.8-5.7,9.2-7.2,13.2c-1.9,5.1-2.9,8-2.9,8.9c0,0.4,0.2,0.9,0.5,1.2c0.4,0.5,0.8,0.7,1.4,0.7
				c1,0,1.8-0.7,2.2-2.2c1.1-3.4,2.3-6.6,3.7-9.8c1.3-3.1,3.5-7,6.6-11.8C195.2,150.2,195.6,149.3,195.6,148.8z"/>
			<path class="st3" d="M199.4,132.4c-1.6,1.6-2.4,3.1-2.4,4.6c0,0.6,0.2,1,0.5,1.4c0.4,0.4,0.8,0.6,1.4,0.6c1.2,0,2.4-0.7,3.6-2.2
				c1.3-1.5,2-2.9,2-4.1c0-1.4-0.7-2.1-2-2.1C201.6,130.7,200.6,131.3,199.4,132.4z"/>
			<path class="st3" d="M227.6,150.5c0-0.5-0.2-1-0.6-1.3c-0.4-0.3-0.9-0.5-1.4-0.5c-2.6,0-7.3,3.5-14.3,10.5
				c0.6-1.4,1.7-3.1,3.3-5.2c1-1.3,1.6-2.2,1.6-2.8c0-0.4-0.2-0.7-0.5-1.1c-0.4-0.4-0.8-0.5-1.2-0.5c-1,0-2.9,1.1-5.8,3.3
				c-1.9,1.5-4.1,3.5-6.6,6.1c0.6-1.5,1.9-3.8,3.8-6.9c1.1-1.7,1.6-2.7,1.6-3.1c0-0.9-0.4-1.4-1.3-1.4c-1,0-2.4,1.4-4.1,4.1
				c-2.6,3.9-4.9,8.2-6.9,13.1c-2,4.6-2.9,7.7-2.9,9.5c0,0.5,0.2,0.9,0.5,1.3c0.3,0.4,0.7,0.5,1.2,0.5c1,0,1.9-0.7,2.5-2.2
				c2.6-6.7,6.4-12,11.5-16c-1.4,2.4-2.6,4.7-3.5,6.9c-1.7,3.8-2.5,6.3-2.5,7.5c0,1.1,0.5,1.7,1.5,1.7c0.9,0,1.7-0.7,2.4-2
				c1.4-2.8,3-5.3,4.8-7.6c2.6-3.3,5.2-5.9,7.7-7.9c-1.2,1.6-2.1,2.9-2.7,3.9c-1.6,2.8-2.3,5.5-2.3,8.2c0,2,0.5,3.8,1.5,5.3
				c0.8,1.2,1.7,1.9,2.7,1.9c0.6,0,1.1-0.2,1.5-0.7c0.4-0.4,0.6-0.9,0.6-1.3c0-0.4-0.1-0.8-0.4-1l-1.2-1.5c-0.5-0.6-0.8-1.7-0.8-3.2
				c0-3.7,2.8-8.5,8.4-14.3C226.9,152.4,227.6,151.3,227.6,150.5z"/>
			<path class="st3" d="M244,145.2c-1.6,0-3.3,0.7-5.3,2c-3.3,2.3-6.2,5.5-8.6,9.6c-2.6,4.5-3.9,8.6-3.9,12.4c0,1.1,0.2,2.1,0.6,2.9
				c0.8,1.6,2.1,2.4,3.8,2.4c3.7,0,7.6-3.3,11.6-9.9c3.7-6.1,5.5-11.1,5.5-15C247.7,146.6,246.5,145.2,244,145.2z M239.7,158.7
				c-0.9,1.1-1.4,1.7-1.4,2c0,0.3,0.4,0.8,1.1,1.4c0,0-0.2,0.5-0.6,1.5c-0.4,0.9-1,1.9-1.7,2.8c-1.6,2.1-3.2,3.2-4.6,3.2
				c-0.6,0-1.1-0.3-1.5-0.8c-0.3-0.4-0.4-0.8-0.4-1.3c0-1.9,0.7-4.3,2.2-7.2c1.2-2.5,3.1-5,5.4-7.4c1.8-1.8,3.2-2.8,4.2-2.8
				c0.5,0,0.9,0.2,1.1,0.7c0.1,0.2,0.2,0.5,0.2,0.7C243.7,153.2,242.4,155.7,239.7,158.7z"/>
			<path class="st3" d="M271.6,150.4c0-1.3-0.6-1.9-1.7-1.9c-2.1,0-6.3,3-12.5,9.1c-0.4,0.4-0.7,0.7-1.1,1.1c0.8-1.5,1.8-3.1,3-4.9
				c0.9-1.2,1.3-2.1,1.3-2.8c0-0.5-0.2-1-0.6-1.4c-0.4-0.4-0.7-0.5-1.1-0.5c-0.8,0-1.8,0.8-2.9,2.4c-1.1,1.7-2.7,4.3-4.6,8
				c-3.7,6.8-5.5,11-5.5,12.6c0,0.6,0.2,1.2,0.6,1.6c0.3,0.4,0.7,0.5,1.2,0.5c1,0,2-0.8,2.9-2.4c3.5-6.6,7.2-11.1,11.3-13.7
				c-3,4.9-4.5,9.3-4.5,13.3c0,2.1,0.4,3.9,1.2,5.3c0.8,1.5,1.9,2.3,3.1,2.3c0.5,0,1-0.2,1.4-0.6c0.4-0.3,0.5-0.7,0.5-1
				c0-0.4-0.2-0.9-0.6-1.6c-0.9-1.5-1.3-3.1-1.3-4.7c0-5.1,2.8-10.9,8.5-17.5C271,152.3,271.6,151.3,271.6,150.4z"/>
			<path class="st3" d="M183.6,94.8c15-11.9,41.2-11.7,41.2-11.7s-21.1-2.8-36.6,4.9c-15.8,7.8-36.1,36-43.4,47.9
				c-9,14.6-21.2,38.8-24.2,36.4l-0.6,0.1c-0.1-0.1-0.3-0.2-0.5-0.3c-1-0.5-1.6-0.8-1.8-1c-0.7-0.8-1.1-1.8-1.1-3.1
				c0-1.5,0.5-3.6,1.4-6.1c0.9-2.4,1.7-4.3,2.6-5.8c0.8-1.4,1.2-2.4,1.2-3.1c0-0.5-0.2-1-0.7-1.6c0.5-1.2,0.8-2.1,0.8-2.7
				c0-0.9-0.4-1.6-1.1-2.3c-0.8-0.8-1.9-1.2-3.1-1.2c-2,0-4.1,0.8-6.2,2.3c-3.3,2.4-6.1,5.8-8.4,10.2c-2.1,4-3.1,7.6-3.1,10.9
				c0,1.3,0.3,2.5,0.8,3.5c0.9,1.5,2.1,2.3,3.7,2.3c1.8,0,3.7-1.2,5.6-3.5c0.9-1.2,1.9-2.6,2.9-4.4c-0.1,1.4-0.2,2.4-0.2,2.9
				c0,1.8,0.5,3.2,1.4,4.4c0,0,2.6,3.8,6.2,3.5c3.7-0.3,4.3-2.2,7.8-6.8c3.4-4.6,4.4-7.8,12.6-22.2
				C149,133.9,168.6,106.7,183.6,94.8z M111.1,164.7c-1.9,3-3.6,4.6-5,4.6c-0.6,0-1-0.2-1.3-0.6s-0.4-0.9-0.4-1.7
				c0-3,1.5-6.7,4.4-11.1c2.6-3.9,5.1-5.9,7.4-5.9c0.5,0,0.9,0.2,1.3,0.5s0.8,0.8,1.2,1.4c-0.6,0.5-1.1,0.9-1.3,1.3
				c-0.5,0.7-1.2,2.1-2.3,4.2C113.5,160.6,112.2,163.1,111.1,164.7z"/>
		</g>
	</g>
</g>
<g id="Ebene_2">
	<g>
		<path class="st4" d="M192.1,107.5l-14.6,4.3l-10.6-17.4l-2.4,4.9l0.4,5.7c0.1,0.8-0.4,1.6-1.2,1.9l-0.5,0.2c-1,0.5-2.3,0-2.8-1
			l-2.3-5l-3.1,0.6c0,0,1.9,6.6,0.4,7.8c-1,0.8-3.3,1.6-4.5-0.8c-1.2-2.4-1.7-8-1.7-8s-9.1-7.3-12.7-11.7c-3.6-4.5-5.8-9.2-7-18.3
			c-1.2-9-1.1-11.3-1.1-11.3l-6.4,1l6.6-4.5c0,0-1.8-4.2,7.6-6.4c9.4-2.2,8.5-3.7,8.5-3.7s-5.8,8-2.9,9.2c2.9,1.2,4.8,4.5,6.2,8.1
			c1.4,3.6,11.3,18.4,21.8,25.7c10.6,7.2,22.1,19.1,22.1,19.1"/>
		<path class="st4" d="M149.1,72.1c0,0-9.2-5.8-13.6-5.9c-5.1-0.1-6,4.8-5.5,6.8c0.2,1.2,8.3,11.5,19.5,14.8
			c11.2,3.3,26.7,5.6,26.7,5.6"/>
		<path class="st4" d="M128.8,55.9l4.8-0.6l-0.6,1.2l-0.9-1"/>
		<polyline class="st4" points="152,126.3 153.4,118.4 158.5,119.2 		"/>
		<line class="st4" x1="152.4" y1="110.3" x2="153.4" y2="118.4"/>
		<line class="st4" x1="163.2" y1="110.3" x2="162.8" y2="107.2"/>
		<polyline class="st4" points="162.1,112.8 163.3,110.1 165.4,109.6 		"/>
		<path class="st4" d="M299,94.2"/>
	</g>
</g>
</svg>
