<?xml version="1.0" encoding="UTF-8"?>
<svg id="Ebene_1" data-name="Ebene 1" xmlns="http://www.w3.org/2000/svg" version="1.1" xmlns:xlink="http://www.w3.org/1999/xlink" viewBox="0 0 283.5 283.5">
  <defs>
    <style>
      .cls-1 {
        fill: url(#Unbenannter_Verlauf_6);
      }

      .cls-1, .cls-2, .cls-3, .cls-4, .cls-5, .cls-6, .cls-7, .cls-8, .cls-9, .cls-10, .cls-11, .cls-12, .cls-13 {
        stroke-width: 0px;
      }

      .cls-2 {
        fill: url(#Unbenannter_Verlauf_5);
      }

      .cls-3 {
        fill: url(#Unbenannter_Verlauf_2);
      }

      .cls-4 {
        fill: url(#Unbenannter_Verlauf_8);
      }

      .cls-5 {
        fill: url(#Unbenannter_Verlauf_9);
      }

      .cls-14 {
        fill: url(#Unbenannter_Verlauf);
        stroke-width: .2px;
      }

      .cls-14, .cls-15 {
        stroke: #4a4a49;
        stroke-miterlimit: 10;
      }

      .cls-14, .cls-16 {
        display: none;
      }

      .cls-6 {
        fill: url(#Unbenannter_Verlauf_11);
      }

      .cls-7 {
        fill: url(#Unbenannter_Verlauf_13);
      }

      .cls-8 {
        fill: url(#Unbenannter_Verlauf_3);
      }

      .cls-9 {
        fill: url(#Unbenannter_Verlauf_12);
      }

      .cls-15 {
        fill: #4f4d4c;
        stroke-width: 2px;
      }

      .cls-10 {
        fill: url(#Unbenannter_Verlauf_4);
      }

      .cls-11 {
        fill: #fff;
      }

      .cls-12 {
        fill: url(#Unbenannter_Verlauf_10);
      }

      .cls-13 {
        fill: url(#Unbenannter_Verlauf_7);
      }
    </style>
    <linearGradient id="Unbenannter_Verlauf" data-name="Unbenannter Verlauf" x1="29.7" y1="144.3" x2="253.7" y2="144.3" gradientTransform="translate(0 286) scale(1 -1)" gradientUnits="userSpaceOnUse">
      <stop offset="0" stop-color="#fff"/>
      <stop offset="1" stop-color="#fff"/>
    </linearGradient>
    <linearGradient id="Unbenannter_Verlauf_2" data-name="Unbenannter Verlauf 2" x1="28.1" y1="199.2" x2="255.2" y2="199.2" gradientTransform="translate(0 286) scale(1 -1)" gradientUnits="userSpaceOnUse">
      <stop offset="0" stop-color="#fff"/>
      <stop offset="1" stop-color="#fff"/>
    </linearGradient>
    <linearGradient id="Unbenannter_Verlauf_3" data-name="Unbenannter Verlauf 3" x1="30.3" y1="79.8" x2="248.6" y2="79.8" gradientTransform="translate(0 286) scale(1 -1)" gradientUnits="userSpaceOnUse">
      <stop offset="0" stop-color="#fff"/>
      <stop offset="1" stop-color="#fff"/>
    </linearGradient>
    <linearGradient id="Unbenannter_Verlauf_4" data-name="Unbenannter Verlauf 4" x1="12.1" y1="138.7" x2="61.7" y2="138.7" gradientTransform="translate(0 286) scale(1 -1)" gradientUnits="userSpaceOnUse">
      <stop offset="0" stop-color="#fff"/>
      <stop offset="1" stop-color="#fff"/>
    </linearGradient>
    <linearGradient id="Unbenannter_Verlauf_5" data-name="Unbenannter Verlauf 5" x1="54.2" y1="111.9" x2="99" y2="111.9" gradientTransform="translate(0 286) scale(1 -1)" gradientUnits="userSpaceOnUse">
      <stop offset="0" stop-color="#fff"/>
      <stop offset="1" stop-color="#fff"/>
    </linearGradient>
    <linearGradient id="Unbenannter_Verlauf_6" data-name="Unbenannter Verlauf 6" x1="97.5" y1="150.9" x2="105" y2="150.9" gradientTransform="translate(0 286) scale(1 -1)" gradientUnits="userSpaceOnUse">
      <stop offset="0" stop-color="#fff"/>
      <stop offset="1" stop-color="#fff"/>
    </linearGradient>
    <linearGradient id="Unbenannter_Verlauf_7" data-name="Unbenannter Verlauf 7" x1="147.1" y1="139.7" x2="195.3" y2="139.7" gradientTransform="translate(0 286) scale(1 -1)" gradientUnits="userSpaceOnUse">
      <stop offset="0" stop-color="#fff"/>
      <stop offset="1" stop-color="#fff"/>
    </linearGradient>
    <linearGradient id="Unbenannter_Verlauf_8" data-name="Unbenannter Verlauf 8" x1="179.9" y1="124.8" x2="195.6" y2="124.8" gradientTransform="translate(0 286) scale(1 -1)" gradientUnits="userSpaceOnUse">
      <stop offset="0" stop-color="#fff"/>
      <stop offset="1" stop-color="#fff"/>
    </linearGradient>
    <linearGradient id="Unbenannter_Verlauf_9" data-name="Unbenannter Verlauf 9" x1="197" y1="151.2" x2="204.5" y2="151.2" gradientTransform="translate(0 286) scale(1 -1)" gradientUnits="userSpaceOnUse">
      <stop offset="0" stop-color="#fff"/>
      <stop offset="1" stop-color="#fff"/>
    </linearGradient>
    <linearGradient id="Unbenannter_Verlauf_10" data-name="Unbenannter Verlauf 10" x1="192.3" y1="124.1" x2="227.6" y2="124.1" gradientTransform="translate(0 286) scale(1 -1)" gradientUnits="userSpaceOnUse">
      <stop offset="0" stop-color="#fff"/>
      <stop offset="1" stop-color="#fff"/>
    </linearGradient>
    <linearGradient id="Unbenannter_Verlauf_11" data-name="Unbenannter Verlauf 11" x1="226.2" y1="126.2" x2="247.7" y2="126.2" gradientTransform="translate(0 286) scale(1 -1)" gradientUnits="userSpaceOnUse">
      <stop offset="0" stop-color="#fff"/>
      <stop offset="1" stop-color="#fff"/>
    </linearGradient>
    <linearGradient id="Unbenannter_Verlauf_12" data-name="Unbenannter Verlauf 12" x1="245.9" y1="122.2" x2="271.6" y2="122.2" gradientTransform="translate(0 286) scale(1 -1)" gradientUnits="userSpaceOnUse">
      <stop offset="0" stop-color="#fff"/>
      <stop offset="1" stop-color="#fff"/>
    </linearGradient>
    <linearGradient id="Unbenannter_Verlauf_13" data-name="Unbenannter Verlauf 13" x1="100" y1="156" x2="224.8" y2="156" gradientTransform="translate(0 286) scale(1 -1)" gradientUnits="userSpaceOnUse">
      <stop offset="0" stop-color="#fff"/>
      <stop offset="1" stop-color="#fff"/>
    </linearGradient>
  </defs>
  <g id="Ebene_3" data-name="Ebene 3" class="cls-16">
    <rect class="cls-15" x="-60.2" y="-17.5" width="376" height="337.8"/>
  </g>
  <g id="Ebene_1-2" data-name="Ebene 1-2">
    <circle class="cls-14" cx="141.7" cy="141.7" r="112"/>
    <g id="Ebene_2" data-name="Ebene 2">
      <g>
        <path class="cls-3" d="M37.2,128c2-2.3,4.1-4.6,6.2-6.8,9.5-45.6,50-79.9,98.3-79.9s61.9,15.8,80.2,40.1c3.2.8,5.3,1.5,5.5,1.5l-3.1,1.9c10.8,15.6,17.2,34.3,17.7,54.6.6-.1,1.2-.2,1.8-.2,3.8,0,7.5,2,9,6.3.7-.6,1.4-1.2,2.4-1.7v-2c.2-62.8-50.8-113.8-113.5-113.8S29.6,77.5,28.1,138.9c1.2-1.6,3.6-4.6,9.1-10.9Z"/>
        <path class="cls-8" d="M247.7,180.1c-1.6,0-3.1-.5-4.4-1.4l-3.2-2.1c-1.7,1.5-3.5,2.5-5.4,3.1-15,36.6-51,62.4-93,62.4s-58.1-13.8-76.6-35.5c-.7.1-1.3.1-2,.1-3.4,0-6.5-1.4-8.7-4-1.4-1.6-2.7-6.2-2.6-8.2l1.4-5.3c-1-1.9-2-3.9-3-6-1.2.7-2.6,1.1-4,1.1s-.5,0-.8-.1l-1.1-.2c-2.4-.5-4.4-2.1-5.7-4.4-.9-1.6-1.4-3.6-1.4-5.8,0-4.3.7-9.8,2.1-16.7-1.9.5-3.7,1.1-5.3,1.7-1.2,1.8-2.4,3.7-3.7,5.8,10.7,51.7,56.6,90.7,111.3,90.7s91.3-31.5,107-75.4c-.2.2-.6.2-.9.2h0Z"/>
      </g>
      <g>
        <path class="cls-10" d="M58,148c.5-.1.9-.4,1.3-1s.6-1.1.6-1.7c0-1.3-.9-2-2.6-2h-3.2c.4-2,1.1-4.8,2.3-8.5,1.3-4.2,2.7-8.1,4.1-11.7.8-2.1,1.2-3.5,1.2-4.4s-.2-1.3-.7-1.9c-.6-.6-1.2-.9-2-.9-1.2,0-3,1.1-5.4,3.4-4,3.8-8,8-11.8,12.4-5.3,6.1-8.5,10-9.6,11.6-2.6,3.8-4.3,6.1-4.9,6.8-1.3.6-3.1,1.2-5.3,2-3,.9-5.1,1.7-6.2,2.4-.7.4-1.1,1.1-1.1,2.1s.1.8.4,1.2c.3.5.8.8,1.4.8s1.1-.2,1.8-.5c1.5-.6,3.1-1.2,4.9-1.7-.6.9-1.3,2.2-2.3,3.7-2.5,3.9-4.3,6.9-5.5,9-2.2,3.9-3.3,6.3-3.3,7.1s.2.9.6,1.3c.4.4.9.7,1.4.7,1,0,2-.8,3-2.4.9-1.4,1.5-2.5,1.9-3.2l2.4-4.1c3.3-5.6,6.3-10.4,9-14.4,4.5-1.8,10.2-3.4,16.9-4.7-.4,1.9-.9,4.6-1.7,8.1-1.5,7-2.2,12.5-2.2,16.6s.2,2.2.6,2.9c.6,1,1.3,1.6,2.4,1.6s1.9-1.1,1.9-3.2.4-4.8,1.2-10.6c1.5-8.7,2.7-14.1,3.4-16.2.8-.2,2.1-.3,3.8-.3.6-.2,1.1-.2,1.3-.3h0ZM52.5,131.7c-1.1,2.9-1.8,4.9-2,5.8-1.1,3.7-1.8,6.1-2,6.9-3.6.8-5.9,1.3-6.9,1.6-3.6,1.1-6,1.7-7.1,2,2.9-4.8,7.8-10.9,14.8-18.5,2-2.1,4-3.8,5.9-5.1-.8,1.9-1.6,4.3-2.7,7.3Z"/>
        <path class="cls-2" d="M97.7,158c-.6,0-1.3.6-2,1.7-1.6,2.5-3.2,4.6-4.9,6.3-1.5,1.5-3.3,2.9-5.6,4.5.8-2,2.1-4.8,3.8-8.3,2.2-4.3,3.8-7.3,4.9-8.9,1.8-2.6,2.7-4.1,2.7-4.6s-.2-.7-.5-1.1c-.4-.4-.8-.5-1.2-.5-1.4,0-3,1.6-4.7,4.7-1.1,2-3.6,7-7.3,15l-2.7,5.8-.9,1.9c-3,1.2-5.7,2.5-8.1,4,.3-.3.5-.6.5-1s-.2-.9-.6-1.6c-.9-1.5-1.3-3.1-1.3-4.7,0-5.1,2.8-10.9,8.5-17.5,1-1.2,1.6-2.3,1.6-3.2,0-1.3-.6-1.9-1.7-1.9-2.1,0-6.3,3-12.5,9.1-.4.4-.7.7-1.1,1.1.8-1.5,1.8-3.1,3-4.9.9-1.2,1.3-2.1,1.3-2.8s-.2-1-.6-1.4-.7-.5-1.1-.5c-.8,0-1.8.8-2.9,2.4-1.1,1.7-2.7,4.3-4.6,8-3.7,6.8-5.5,11-5.5,12.6s.2,1.2.6,1.6c.3.4.7.5,1.2.5,1,0,2-.8,2.8-2.4,3.5-6.6,7.2-11.1,11.3-13.7-3,4.9-4.6,9.3-4.6,13.3s.4,3.9,1.2,5.3c.8,1.5,1.9,2.3,3.1,2.3s.3,0,.5-.1c-3,1.9-5.6,4.1-7.6,6.6-3.2,3.8-4.8,7.2-4.8,10.3s.4,2.2,1.1,3.1c1.1,1.3,2.5,2,4.2,2s2.8-.4,4.1-1.2c2-1.2,3.6-2.6,5-4.5,2.5-3.4,5-7.8,7.4-13.2,1.4-3.1,2.4-5.1,3-6.1,6.6-3.7,11.4-7.8,14.4-12.3,1.2-1.8,1.9-3.1,1.9-4.1s0-.7-.4-1c-.3-.4-.6-.6-.9-.6h0ZM67.8,194.3c-1.4,1.4-2.7,2.1-4,2.1s-1-.2-1.3-.5-.5-.8-.5-1.4c0-2.6,1.9-5.7,5.6-9.3,3.2-3.1,6.2-5.2,9-6.2-3.5,8-6.4,13.1-8.8,15.3h0Z"/>
        <path class="cls-1" d="M103,137.1c1.3-1.5,2-2.9,2-4.1s-.7-2.1-2-2.1-2,.6-3.1,1.8c-1.6,1.6-2.4,3.1-2.4,4.5s.2,1.1.5,1.5c.4.4.9.6,1.4.6,1.2,0,2.4-.7,3.6-2.2Z"/>
        <path class="cls-13" d="M185.4,131.3c-2.8,2.3-5.9,4.1-9.5,5.4-2,.7-2.9,1.6-2.9,2.7s.2.9.5,1.3c.5.6,1.1.9,1.8.9,1,0,2.6-.5,4.6-1.5,4-2.1,7.6-4.7,10.6-7.9,3.2-3.4,4.8-6.7,4.8-9.6s-.7-3.4-2.2-4.5c-1.2-.9-2.7-1.4-4.5-1.4-2.7,0-5.5.6-8.4,1.9-3.5,1.6-6.7,3.6-9.6,6.2-5.5,4.8-8.2,10-8.2,15.6s.7,4.7,2.1,7.2c1.2,2.2,2.7,4.6,4.5,7.3,1.2,1.7,2,3.1,2.6,4.3.5,1.1.8,2.3.8,3.7,0,2.2-.9,4.1-2.8,5.5-2.9,2.3-6.4,3.4-10.3,3.4s-3.6-.4-4.9-1.3c-1.5-1.1-2.2-2.6-2.2-4.5s1.3-4,3.8-4.9c1.5-.5,2.2-1.2,2.2-2.2s-.8-2-2.4-2-1.5.2-2.4.6c-1.4.5-2.7,1.3-3.7,2.4-1.7,1.8-2.6,3.9-2.6,6.5s.9,4.4,2.7,6.1c2.4,2.4,5.7,3.5,10,3.5s8.2-1.1,11.6-3.4c4-2.7,6-5.8,6-9.3s-.6-3.8-1.6-5.8c-.9-1.8-2.1-3.7-3.5-5.7-1.4-2.1-2.6-4.1-3.5-5.8-1.1-2.1-1.6-4.2-1.6-6.1,0-2.7,1-5.5,3.1-8.4,2.4-3.3,5.6-6.1,9.8-8.2,3.1-1.6,5.7-2.4,7.7-2.4s1.4.2,2,.6c.7.5,1.1,1.2,1.1,2.1-.1,2.1-1.9,4.7-5.5,7.7h0Z"/>
        <path class="cls-4" d="M195.6,148.8c0-.3-.1-.6-.4-1-.3-.4-.7-.6-1.2-.6s-1.1.3-1.6.9c-.5.5-1.3,1.6-2.4,3.2-3.3,4.8-5.7,9.2-7.2,13.2-1.9,5.1-2.9,8-2.9,8.9s.2.9.5,1.2c.4.5.8.7,1.4.7,1,0,1.8-.7,2.2-2.2,1.1-3.4,2.3-6.6,3.7-9.8,1.3-3.1,3.5-7,6.6-11.8.9-1.3,1.3-2.2,1.3-2.7h0Z"/>
        <path class="cls-5" d="M199.4,132.4c-1.6,1.6-2.4,3.1-2.4,4.6s.2,1,.5,1.4c.4.4.8.6,1.4.6,1.2,0,2.4-.7,3.6-2.2,1.3-1.5,2-2.9,2-4.1s-.7-2.1-2-2.1c-.9.1-1.9.7-3.1,1.8Z"/>
        <path class="cls-12" d="M227.6,150.5c0-.5-.2-1-.6-1.3-.4-.3-.9-.5-1.4-.5-2.6,0-7.3,3.5-14.3,10.5.6-1.4,1.7-3.1,3.3-5.2,1-1.3,1.6-2.2,1.6-2.8s-.2-.7-.5-1.1c-.4-.4-.8-.5-1.2-.5-1,0-2.9,1.1-5.8,3.3-1.9,1.5-4.1,3.5-6.6,6.1.6-1.5,1.9-3.8,3.8-6.9,1.1-1.7,1.6-2.7,1.6-3.1,0-.9-.4-1.4-1.3-1.4s-2.4,1.4-4.1,4.1c-2.6,3.9-4.9,8.2-6.9,13.1-2,4.6-2.9,7.7-2.9,9.5s.2.9.5,1.3c.3.4.7.5,1.2.5,1,0,1.9-.7,2.5-2.2,2.6-6.7,6.4-12,11.5-16-1.4,2.4-2.6,4.7-3.5,6.9-1.7,3.8-2.5,6.3-2.5,7.5s.5,1.7,1.5,1.7,1.7-.7,2.4-2c1.4-2.8,3-5.3,4.8-7.6,2.6-3.3,5.2-5.9,7.7-7.9-1.2,1.6-2.1,2.9-2.7,3.9-1.6,2.8-2.3,5.5-2.3,8.2s.5,3.8,1.5,5.3c.8,1.2,1.7,1.9,2.7,1.9s1.1-.2,1.5-.7c.4-.4.6-.9.6-1.3s-.1-.8-.4-1l-1.2-1.5c-.5-.6-.8-1.7-.8-3.2,0-3.7,2.8-8.5,8.4-14.3,1.2-1.4,1.9-2.5,1.9-3.3Z"/>
        <path class="cls-6" d="M244,145.2c-1.6,0-3.3.7-5.3,2-3.3,2.3-6.2,5.5-8.6,9.6-2.6,4.5-3.9,8.6-3.9,12.4s.2,2.1.6,2.9c.8,1.6,2.1,2.4,3.8,2.4,3.7,0,7.6-3.3,11.6-9.9,3.7-6.1,5.5-11.1,5.5-15s-1.2-4.4-3.7-4.4h0ZM239.7,158.7c-.9,1.1-1.4,1.7-1.4,2s.4.8,1.1,1.4c0,0-.2.5-.6,1.5-.4.9-1,1.9-1.7,2.8-1.6,2.1-3.2,3.2-4.6,3.2s-1.1-.3-1.5-.8c-.3-.4-.4-.8-.4-1.3,0-1.9.7-4.3,2.2-7.2,1.2-2.5,3.1-5,5.4-7.4,1.8-1.8,3.2-2.8,4.2-2.8s.9.2,1.1.7c.1.2.2.5.2.7,0,1.7-1.3,4.2-4,7.2h0Z"/>
        <path class="cls-9" d="M271.6,150.4c0-1.3-.6-1.9-1.7-1.9-2.1,0-6.3,3-12.5,9.1-.4.4-.7.7-1.1,1.1.8-1.5,1.8-3.1,3-4.9.9-1.2,1.3-2.1,1.3-2.8s-.2-1-.6-1.4-.7-.5-1.1-.5c-.8,0-1.8.8-2.9,2.4-1.1,1.7-2.7,4.3-4.6,8-3.7,6.8-5.5,11-5.5,12.6s.2,1.2.6,1.6c.3.4.7.5,1.2.5,1,0,2-.8,2.9-2.4,3.5-6.6,7.2-11.1,11.3-13.7-3,4.9-4.5,9.3-4.5,13.3s.4,3.9,1.2,5.3c.8,1.5,1.9,2.3,3.1,2.3s1-.2,1.4-.6c.4-.3.5-.7.5-1s-.2-.9-.6-1.6c-.9-1.5-1.3-3.1-1.3-4.7,0-5.1,2.8-10.9,8.5-17.5.8-1.3,1.4-2.3,1.4-3.2h0Z"/>
        <path class="cls-7" d="M183.6,94.8c15-11.9,41.2-11.7,41.2-11.7,0,0-21.1-2.8-36.6,4.9-15.8,7.8-36.1,36-43.4,47.9-9,14.6-21.2,38.8-24.2,36.4h-.6s-.3,0-.5-.2c-1-.5-1.6-.8-1.8-1-.7-.8-1.1-1.8-1.1-3.1s.5-3.6,1.4-6.1c.9-2.4,1.7-4.3,2.6-5.8.8-1.4,1.2-2.4,1.2-3.1s-.2-1-.7-1.6c.5-1.2.8-2.1.8-2.7,0-.9-.4-1.6-1.1-2.3s-1.9-1.2-3.1-1.2c-2,0-4.1.8-6.2,2.3-3.3,2.4-6.1,5.8-8.4,10.2-2.1,4-3.1,7.6-3.1,10.9s.3,2.5.8,3.5c.9,1.5,2.1,2.3,3.7,2.3s3.7-1.2,5.6-3.5c.9-1.2,1.9-2.6,2.9-4.4,0,1.4-.2,2.4-.2,2.9,0,1.8.5,3.2,1.4,4.4,0,0,2.6,3.8,6.2,3.5,3.7-.3,4.3-2.2,7.8-6.8,3.4-4.6,4.4-7.8,12.6-22.2,8.2-14.4,27.8-41.6,42.8-53.5h0ZM111.1,164.7c-1.9,3-3.6,4.6-5,4.6s-1-.2-1.3-.6-.4-.9-.4-1.7c0-3,1.5-6.7,4.4-11.1,2.6-3.9,5.1-5.9,7.4-5.9s.9.2,1.3.5.8.8,1.2,1.4c-.6.5-1.1.9-1.3,1.3-.5.7-1.2,2.1-2.3,4.2-1.6,3.2-2.9,5.7-4,7.3Z"/>
      </g>
    </g>
  </g>
  <g>
    <path class="cls-11" d="M191.7,107.4l.5-.5c-.1-.1-11.6-12-22.2-19.2-10.2-7.1-20-21.7-21.4-25.2-1.8-4.8-4-7.6-6.7-8.7-.2,0-.2,0-.2-.2-.3-1.1,1.2-4.1,2.7-6.4.6-.4.8-.7.9-1,.2-.4.2-.9,0-1.2l-.8-1.3-.9,1.2c0,.2-.3.5-.6.9-.8.4-2.7,1.3-7.3,2.4-4.2,1-6.9,2.6-8,4.7-.4.9-.4,1.7-.4,2.3l-9.7,6.6,9.7-1.5c0,1.5.3,4.6,1.1,10.3,1.3,9.8,3.7,14.4,7.2,18.8,3.3,4,10.8,10.2,12.5,11.6.2,1.4.7,5.7,1.8,7.9.4.8,1,1.3,1.5,1.7h0s1,8.1,1,8.1h0s-1.3,7.4-1.3,7.4l1,.2,1,.2.3-1.6.9-5.4,3.5.6h.6c0,.1.2-.9.2-.9l.2-1-4.5-.7-.8-6.4c1,0,2-.4,2.6-1,1.6-1.3.8-5.3.2-7.8l1.3-.2,2,4.3c.4.8,1,1.3,1.8,1.6.2.1.5.2.7.2l.2,1.8-1,2.3,1.8.8,1-2.2,1.6-.4-.2-1-.2-1-1.1.3v-1c-.1,0,0,0,0,0,1.2-.5,2-1.7,1.8-2.9l-.4-5.4,1.5-3,9.8,16.1,15.1-4.4v-.4c0,0,0,.1,0,.1l.2-.4h-.3c0,.1,0,0,0,0ZM163.3,99l.4,6c0,.3-.2.7-.6.8l-.6.2c-.2,0-.5,0-.8,0-.2,0-.5-.3-.6-.5l-2.6-5.7-4.9,1,.3,1.1c.8,3,1.2,6.2.7,6.7-.5.3-1.3.6-1.9.5-.4,0-.8-.4-1.1-1-.9-1.8-1.4-6.1-1.6-7.6v-.4l-.3-.3s-9-7.2-12.5-11.5c-2.5-3.1-4.4-6.3-5.7-11.6,3.3,3.9,9.7,9.7,17.8,12.1,5.4,1.6,11.8,3,17,4l-3,6.2ZM128.9,56.8h0c0,0,2.8-.3,2.8-.3l1.5,1.8,2.1-4.2-6,.7c0-.2,0-.5.3-.8.6-1.1,2.2-2.5,6.7-3.6,2.2-.5,3.8-1,5.1-1.4-1,1.9-1.8,4-1.4,5.4.2.7.6,1.2,1.3,1.5,2.2.9,4.1,3.3,5.7,7.5.9,2.4,5.1,9,10.7,15.4,3.4,4,7.4,7.9,11.5,10.8,1.1.8,2.3,1.6,3.4,2.4-5.3-.9-15.1-2.7-22.8-4.9-10.7-3.2-18.4-12.9-18.8-14.1-.2-.9,0-2.8,1-4.1.8-1,2-1.5,3.5-1.5,3.4,0,10.6,4.1,13.1,5.7l.6-.9.5-.8c-.4-.3-9.5-6-14.1-6.1-2.7,0-4.3,1.2-5.1,2.2-.1.2-.3.4-.4.6-.8-6.7-.7-8.7-.7-8.7v-1.2l-3.2.5,2.7-1.9ZM175.5,94.3c6.1,4.9,11.7,10.2,14.2,12.8l-11.8,3.5-10.7-17.7c4,.7,7.1,1.2,8.3,1.4Z"/>
    <polygon class="cls-11" points="177 113 176.8 112.6 176.6 112.7 177 113"/>
  </g>
</svg>