<?xml version="1.0" encoding="UTF-8"?>
<svg id="Ebene_1" data-name="Ebene 1" xmlns="http://www.w3.org/2000/svg" version="1.1" viewBox="0 0 14.2 14.2">
  <defs>
    <style>
      .cls-1 {
        fill: #fff;
        stroke-width: 0px;
      }
    </style>
  </defs>
  <path class="cls-1" d="M13.2,3.3h-2.8c-.2-.6-.8-.9-1.4-.9h-3.8c-.6,0-1.2.4-1.4.9H1c-.5,0-.9.4-.9.9v6.7c0,.5.4.9.9.9h12.2c.5,0,.9-.4.9-.9v-6.7c0-.5-.4-.9-.9-.9ZM7.1,11.1c-1.9,0-3.5-1.6-3.5-3.5s1.6-3.5,3.5-3.5,3.5,1.6,3.5,3.5-1.6,3.5-3.5,3.5Z"/>
  <path class="cls-1" d="M7.1,4.9c-1.5,0-2.7,1.2-2.7,2.7s1.2,2.6,2.7,2.6,2.6-1.2,2.6-2.7-1.2-2.6-2.6-2.6Z"/>
</svg>