<?xml version="1.0" encoding="utf-8"?>
<!-- Generator: Adobe Illustrator 27.8.0, SVG Export Plug-In . SVG Version: 6.00 Build 0)  -->
<svg version="1.1" id="Ebene_1" xmlns="http://www.w3.org/2000/svg" xmlns:xlink="http://www.w3.org/1999/xlink" x="0px" y="0px"
	 viewBox="0 0 14.17 14.17" style="enable-background:new 0 0 14.17 14.17;" xml:space="preserve">
<g>
	<path d="M13.21,2.83h-2.85C10.14,2.27,9.6,1.88,8.98,1.88H5.2c-0.63,0-1.16,0.4-1.38,0.95H0.96c-0.5,0-0.9,0.41-0.9,0.9v6.71
		c0,0.5,0.41,0.9,0.9,0.9h12.24c0.5,0,0.9-0.41,0.9-0.9V3.73C14.11,3.24,13.71,2.83,13.21,2.83z M7.09,10.62
		c-1.95,0-3.54-1.58-3.54-3.54s1.58-3.54,3.54-3.54s3.54,1.58,3.54,3.54S9.04,10.62,7.09,10.62z"/>
	<path d="M7.09,4.44c-1.46,0-2.65,1.19-2.65,2.65c0,1.46,1.19,2.65,2.65,2.65c1.46,0,2.65-1.19,2.65-2.65
		C9.74,5.62,8.55,4.44,7.09,4.44z"/>
</g>
</svg>
