<?xml version="1.0" encoding="utf-8"?>
<!-- Generator: Adobe Illustrator 27.8.0, SVG Export Plug-In . SVG Version: 6.00 Build 0)  -->
<svg version="1.1" id="Ebene_2" xmlns="http://www.w3.org/2000/svg" xmlns:xlink="http://www.w3.org/1999/xlink" x="0px" y="0px"
	 viewBox="0 0 283.46 283.46" style="enable-background:new 0 0 283.46 283.46;" xml:space="preserve">
<style type="text/css">
	.st0{fill:#3C3C3B;}
</style>
<path class="st0" d="M212.92,278.06H72.59V137.72h140.33V278.06z M87.59,263.06h110.33V152.72H87.59V263.06z"/>
<rect x="109.42" y="165.72" class="st0" width="66.67" height="15"/>
<rect x="109.42" y="191.72" class="st0" width="66.67" height="15"/>
<rect x="109.42" y="219.28" class="st0" width="66.67" height="15"/>
<g>
	<polygon class="st0" points="87.59,25.39 197.92,25.39 197.92,47.44 212.92,47.44 212.92,10.39 72.59,10.39 72.59,47.44 
		87.59,47.44 	"/>
</g>
<g>
	<path class="st0" d="M237.68,57.67H48.35c-23.1,0-42,18.9-42,42v62.67c0,23.1,18.9,42,42,42h9.61v-75.56h167.56v75.56h12.17
		c23.1,0,42-18.9,42-42V99.67C279.68,76.57,260.78,57.67,237.68,57.67z M44.11,106.11c-7.73,0-14-6.27-14-14s6.27-14,14-14
		c7.73,0,14,6.27,14,14S51.84,106.11,44.11,106.11z"/>
</g>
</svg>
